<?xml version="1.0" standalone="no"?>
<!DOCTYPE svg PUBLIC "-//W3C//DTD SVG 20010904//EN"
 "http://www.w3.org/TR/2001/REC-SVG-20010904/DTD/svg10.dtd">
<svg version="1.0" xmlns="http://www.w3.org/2000/svg"
 width="512.000000pt" height="512.000000pt" viewBox="0 0 512.000000 512.000000"
 preserveAspectRatio="xMidYMid meet">
<metadata>
Created by potrace 1.11, written by Peter Selinger 2001-2013
</metadata>
<g transform="translate(0.000000,512.000000) scale(0.100000,-0.100000)"
fill="#000000" stroke="none">
<path d="M1904 4836 c-36 -20 -72 -59 -67 -73 3 -7 1 -13 -5 -13 -5 0 -9 -15
-9 -33 1 -18 -2 -37 -5 -42 -11 -17 -5 -199 6 -214 8 -11 8 -13 -1 -7 -8 4
-13 1 -13 -9 0 -9 5 -13 11 -9 8 5 8 1 0 -14 -8 -15 -8 -22 2 -25 9 -4 9 -6 0
-6 -9 -1 -10 -8 -3 -27 13 -33 13 -37 -2 -28 -7 5 -8 3 -3 -6 4 -7 9 -28 10
-46 1 -26 -2 -31 -11 -23 -8 7 -14 7 -19 -1 -8 -13 -25 -13 -25 1 0 5 6 7 13
4 6 -4 4 0 -6 8 -14 11 -15 16 -5 20 10 4 10 6 1 6 -7 1 -13 7 -13 15 0 7 -7
19 -15 26 -8 7 -12 16 -9 21 3 5 -2 9 -10 9 -9 0 -16 5 -16 10 0 6 -9 10 -20
10 -11 0 -20 6 -20 13 0 8 -3 9 -8 1 -4 -6 -23 -12 -42 -13 -19 -2 -45 -4 -57
-4 -12 -1 -21 -6 -20 -12 1 -5 -4 -9 -11 -7 -7 1 -15 -5 -18 -13 -4 -8 -15
-15 -26 -15 -10 0 -17 -4 -13 -9 3 -5 -2 -17 -11 -25 -9 -9 -17 -24 -19 -34
-2 -9 -4 -17 -5 -17 -1 0 -4 -12 -6 -28 -2 -19 1 -26 9 -21 7 3 3 -2 -7 -10
-12 -10 -15 -16 -7 -16 8 0 11 -6 7 -15 -3 -8 -1 -15 4 -15 6 0 10 -9 10 -20
0 -11 4 -20 8 -20 5 0 15 -11 22 -25 7 -14 22 -25 32 -25 12 0 16 -4 12 -12
-5 -8 -2 -9 9 -5 10 3 17 2 17 -3 0 -6 9 -10 19 -10 11 0 23 -5 26 -10 5 -8
11 -8 20 0 9 8 14 8 17 -1 3 -9 9 -9 27 1 15 7 21 8 17 1 -10 -16 1 -13 25 7
43 35 57 54 64 88 5 31 9 34 43 34 28 0 33 -3 22 -10 -8 -5 -10 -10 -5 -10 6
0 10 -13 11 -30 1 -17 -3 -27 -9 -23 -6 4 -7 1 -1 -8 5 -8 9 -33 9 -56 1 -23
4 -45 8 -49 4 -4 2 -13 -4 -21 -7 -7 -7 -13 -2 -13 6 0 9 -24 7 -55 -1 -31 2
-53 7 -49 5 3 9 0 9 -5 0 -6 -4 -11 -8 -11 -4 0 -8 -9 -8 -20 0 -11 4 -20 8
-20 4 0 8 -5 8 -11 0 -5 -4 -8 -8 -5 -10 6 -9 -30 1 -40 11 -12 8 -26 -4 -18
-8 4 -8 1 -1 -12 9 -18 11 -48 13 -161 0 -34 5 -53 12 -53 7 -1 1 -7 -12 -14
-30 -16 -51 -11 -51 14 0 19 -29 82 -31 65 0 -5 -4 0 -9 13 -6 13 -18 22 -30
22 -14 0 -19 4 -14 13 5 9 4 9 -6 0 -9 -8 -19 -9 -31 -3 -11 7 -20 7 -24 0 -3
-5 -22 -10 -41 -10 -19 0 -34 -4 -34 -10 0 -5 -6 -9 -12 -7 -7 1 -12 -4 -10
-11 1 -8 -1 -11 -6 -8 -15 9 -68 -46 -77 -79 -13 -47 -13 -105 -1 -105 6 0 4
-5 -4 -10 -9 -6 -10 -10 -3 -10 6 0 14 -8 18 -19 8 -26 62 -81 80 -81 8 0 15
-4 15 -10 0 -5 5 -10 11 -10 5 0 7 6 4 13 -4 6 -1 5 7 -3 7 -9 21 -14 31 -12
9 2 17 -2 17 -10 0 -10 3 -9 10 2 9 13 11 13 20 0 5 -8 10 -10 10 -5 0 6 10
12 22 12 13 1 29 10 36 20 7 10 16 17 20 16 4 0 6 3 5 8 -2 5 2 9 8 9 5 0 8 4
4 9 -3 5 0 13 6 16 5 4 8 13 5 21 -3 8 -1 14 5 14 6 0 7 5 3 12 -5 8 -2 9 9 5
10 -4 17 -2 17 5 0 6 9 1 20 -12 14 -16 17 -27 10 -35 -5 -6 -7 -14 -4 -17 2
-3 7 -18 10 -33 3 -20 1 -25 -8 -19 -10 6 -10 5 -2 -7 7 -8 11 -25 10 -39 -1
-14 0 -29 3 -34 8 -16 7 -56 -2 -56 -4 0 -3 -9 3 -19 7 -14 7 -22 0 -26 -8 -5
-7 -11 0 -20 7 -8 9 -19 5 -25 -3 -5 0 -10 7 -10 10 0 10 -2 0 -9 -14 -9 -15
-13 -2 -47 5 -13 4 -26 -3 -33 -6 -6 -7 -11 -2 -11 6 0 10 -34 10 -76 -1 -41
3 -78 8 -81 4 -2 2 -11 -4 -20 -10 -11 -10 -16 0 -23 11 -6 11 -9 0 -13 -12
-5 -12 -6 0 -6 11 -1 11 -4 0 -18 -12 -15 -12 -16 1 -8 12 6 12 5 4 -4 -7 -7
-22 -11 -35 -9 -18 2 -23 9 -24 33 0 17 -8 36 -17 43 -10 7 -18 20 -18 28 0 8
-9 14 -20 14 -11 0 -20 4 -20 8 0 4 -18 8 -40 8 -22 0 -40 -2 -40 -6 0 -3 -15
-7 -32 -8 -18 -2 -34 -7 -36 -12 -2 -6 -10 -10 -18 -10 -8 0 -14 -4 -14 -9 0
-5 -9 -13 -21 -16 -11 -4 -18 -9 -15 -12 3 -3 -2 -12 -10 -20 -8 -9 -13 -22
-10 -30 3 -8 1 -11 -4 -8 -13 8 -17 -76 -6 -110 16 -47 29 -75 34 -71 3 3 12
-3 21 -13 9 -10 26 -21 39 -25 13 -5 20 -12 15 -19 -4 -7 2 -5 12 3 11 9 16
10 11 3 -5 -9 1 -13 21 -14 60 -2 99 3 119 16 22 14 64 86 64 109 0 7 7 13 15
13 8 0 15 -4 15 -9 0 -5 4 -6 10 -3 6 4 10 -22 10 -69 0 -54 4 -76 13 -76 9 0
9 -2 0 -8 -7 -4 -12 -24 -11 -45 1 -20 5 -34 10 -31 5 4 4 -4 -4 -15 -11 -18
-11 -23 2 -31 11 -7 11 -10 2 -10 -8 0 -10 -5 -5 -12 12 -20 12 -37 1 -44 -6
-4 -5 -10 3 -15 12 -7 12 -9 0 -9 -11 0 -11 -3 -1 -15 10 -12 10 -15 -1 -15
-11 0 -11 -2 1 -10 8 -5 10 -10 3 -10 -6 0 -10 -8 -8 -17 2 -10 4 -18 5 -18 1
0 3 -8 5 -18 2 -9 0 -15 -5 -12 -12 7 -6 -16 21 -83 6 -15 6 -21 -1 -17 -5 3
-3 -10 5 -30 9 -19 12 -35 9 -35 -4 0 -1 -7 6 -15 7 -8 9 -15 5 -15 -4 0 -1
-8 6 -17 8 -9 9 -14 3 -10 -6 3 -11 0 -11 -8 0 -8 4 -12 9 -9 8 5 13 -25 9
-55 -2 -7 2 -11 7 -7 5 3 8 -5 7 -17 -1 -12 4 -37 12 -54 7 -18 10 -33 7 -33
-4 0 0 -8 7 -17 12 -15 12 -16 -1 -8 -12 6 -13 5 -2 -6 6 -7 12 -23 12 -35 0
-12 6 -25 13 -27 10 -4 10 -6 0 -6 -7 -1 -13 -6 -13 -12 0 -5 4 -7 10 -4 6 4
10 -8 10 -29 0 -22 5 -36 13 -36 8 0 7 -3 -2 -9 -20 -13 27 -25 90 -24 64 0
85 9 69 28 -7 8 -8 15 -3 15 5 0 8 13 5 30 -3 18 -9 27 -16 23 -6 -3 -6 0 2 8
6 7 12 21 12 31 0 10 -6 18 -12 18 -9 0 -9 3 -3 8 13 8 13 22 1 41 -7 10 -6
12 4 6 10 -6 10 -4 2 11 -6 11 -7 27 -1 42 5 13 5 21 1 18 -5 -3 -9 14 -9 37
0 23 -2 63 -5 89 -2 29 0 48 7 48 7 0 7 3 0 8 -15 11 -20 66 -5 57 7 -4 4 4
-5 19 -14 20 -14 26 -4 26 9 0 10 3 4 8 -5 4 -10 37 -10 75 0 37 -3 67 -8 67
-4 0 -4 8 1 17 8 17 8 31 2 51 -6 19 -4 38 5 51 7 11 7 13 -2 7 -8 -4 -13 -2
-13 7 0 11 -10 12 -42 8 -50 -8 -81 -3 -73 10 3 5 0 6 -8 3 -15 -5 -80 49 -70
60 3 3 1 6 -6 6 -8 0 -11 8 -8 20 3 11 1 20 -3 20 -11 0 -4 73 10 100 18 34
43 59 52 54 4 -3 8 -1 8 4 0 6 14 15 31 21 40 14 42 14 33 -1 -5 -8 -1 -8 10
1 15 13 21 12 47 -3 16 -9 29 -14 29 -10 0 4 7 -1 16 -12 8 -10 13 -12 9 -4
-4 8 2 5 12 -7 l18 -23 0 44 c0 24 -2 43 -6 40 -3 -2 -5 17 -4 41 1 25 -2 45
-6 45 -4 0 -4 12 0 28 9 29 4 55 -8 48 -4 -3 -8 1 -8 9 0 8 4 12 9 9 11 -7 10
3 -3 28 -9 16 -8 19 2 13 8 -5 10 -4 5 4 -4 6 -9 33 -12 59 -2 26 -5 59 -7 75
-3 15 1 27 7 27 8 0 8 2 0 8 -13 9 -27 45 -15 38 5 -4 5 10 1 31 -5 20 -7 40
-4 44 7 12 -23 18 -35 6 -6 -6 -11 -8 -11 -4 0 4 -9 3 -20 -3 -12 -6 -20 -7
-20 -1 0 5 -12 8 -26 6 -14 -1 -32 4 -40 12 -8 8 -14 12 -14 9 0 -3 -8 2 -18
12 -19 19 -36 52 -34 65 1 4 -2 7 -8 7 -6 0 -7 19 -4 48 3 26 6 52 6 58 2 13
70 78 89 83 34 8 99 9 99 0 0 -5 3 -8 8 -7 13 2 47 -15 59 -31 10 -13 11 -6 7
34 -3 28 -5 59 -5 70 0 11 -5 23 -12 27 -9 6 -9 8 1 8 10 0 10 5 1 21 -8 15
-8 19 0 15 6 -4 11 -2 11 3 0 6 -5 11 -11 11 -6 0 -9 8 -6 19 2 10 0 25 -4 34
-6 10 -5 18 1 22 6 4 7 12 3 18 -10 15 -15 43 -16 90 -1 20 -4 37 -7 37 -5 0
-11 82 -10 138 0 13 -5 20 -10 17 -6 -3 -10 -2 -10 4 0 5 -12 8 -26 5 -45 -8
-84 6 -123 45 -36 36 -39 42 -48 95 -3 21 -1 26 9 21 10 -6 10 -5 2 4 -13 14
-6 64 7 55 5 -2 11 6 14 19 6 22 85 79 85 61 0 -5 5 -3 12 4 8 8 15 9 25 1 10
-9 13 -8 13 2 0 11 2 11 8 2 5 -7 20 -14 34 -15 15 -1 24 -6 22 -10 -3 -4 0
-8 6 -8 6 0 17 -6 24 -13 19 -19 48 -77 39 -77 -5 0 -1 -5 7 -10 13 -9 13 -10
0 -10 -12 0 -13 -2 -1 -9 8 -6 10 -14 5 -22 -5 -8 -10 -23 -11 -34 -2 -11 -10
-23 -18 -28 -11 -6 -13 -23 -9 -80 3 -40 6 -87 7 -104 0 -18 5 -33 10 -33 5 0
3 -8 -4 -17 -8 -9 -9 -14 -3 -10 7 4 12 -4 13 -21 1 -15 3 -43 4 -62 1 -19 6
-41 11 -49 6 -10 5 -16 -3 -19 -8 -3 -9 -8 -2 -16 6 -7 11 -36 12 -64 1 -28 6
-49 11 -46 4 3 8 1 8 -5 0 -5 -6 -12 -12 -14 -10 -4 -10 -6 0 -6 10 -1 10 -6
1 -22 -6 -12 -7 -19 -2 -16 6 4 11 -14 12 -40 1 -26 6 -50 12 -54 8 -5 8 -8 0
-13 -6 -4 -9 -12 -5 -17 3 -6 8 -30 10 -55 2 -25 7 -50 10 -56 4 -7 2 -8 -4
-4 -7 4 -12 2 -12 -3 0 -6 4 -11 9 -11 5 0 9 -10 10 -22 3 -52 7 -77 14 -84 4
-4 2 -13 -4 -21 -6 -7 -7 -13 -2 -13 5 0 9 -15 10 -32 1 -18 5 -64 9 -103 3
-38 7 -80 8 -92 0 -13 5 -23 10 -23 5 0 3 -6 -3 -14 -9 -10 -9 -16 -1 -21 6
-4 9 -13 6 -20 -2 -7 2 -24 9 -39 8 -15 10 -24 5 -21 -6 4 -10 -3 -10 -15 0
-14 4 -19 13 -14 8 5 8 2 -2 -9 -8 -11 -9 -17 -3 -17 10 0 13 -21 12 -102 0
-16 5 -28 12 -28 9 0 8 -3 -2 -10 -10 -6 -11 -10 -2 -10 14 0 12 -21 -3 -32
-6 -5 -6 -8 2 -8 6 0 12 -8 12 -17 0 -27 9 -108 11 -108 1 0 3 -11 4 -25 0
-14 5 -31 10 -39 6 -10 6 -12 -2 -7 -16 9 -15 -7 0 -22 9 -9 9 -12 0 -12 -7 0
-12 -5 -12 -11 0 -5 5 -7 11 -4 7 5 9 -5 7 -26 -2 -21 3 -39 12 -47 8 -8 9
-11 2 -7 -13 6 -12 -28 1 -41 3 -4 2 -16 -4 -27 -8 -14 -8 -18 1 -12 7 4 11 1
9 -6 -5 -40 2 -90 12 -83 8 5 8 1 0 -13 -7 -14 -7 -23 1 -31 9 -9 9 -12 -1
-12 -9 0 -10 -4 -5 -12 5 -7 9 -22 9 -33 0 -11 4 -23 10 -27 6 -5 5 -8 -4 -8
-9 0 -10 -4 -4 -13 5 -6 11 -37 12 -67 2 -30 7 -62 12 -72 12 -23 11 -36 -2
-18 -9 12 -9 11 -3 -5 4 -11 10 -44 12 -73 3 -36 7 -50 15 -45 7 4 7 0 -1 -9
-9 -11 -10 -18 -2 -23 6 -3 8 -10 5 -15 -3 -4 -2 -15 1 -24 5 -12 10 -14 19
-6 6 5 15 7 19 3 13 -13 35 -11 40 4 4 8 11 11 18 7 10 -6 10 -4 0 8 -9 12
-10 18 -2 23 8 5 8 10 0 20 -7 9 -7 15 -1 19 5 4 9 25 8 47 -2 22 1 43 5 45 4
3 5 11 1 19 -3 9 1 23 8 32 12 14 12 16 -1 8 -12 -7 -13 -6 -4 6 6 8 10 31 10
52 -1 20 3 37 9 37 5 0 3 5 -5 10 -12 8 -12 10 -1 10 11 0 11 3 0 17 -8 9 -9
14 -2 10 11 -7 14 17 15 110 0 15 4 20 12 16 6 -4 5 1 -3 10 -7 9 -9 17 -4 17
9 0 13 27 13 88 -1 17 4 40 9 51 7 12 6 22 -1 29 -8 8 -9 12 -1 12 6 0 11 12
10 27 0 16 4 62 8 103 4 41 8 82 8 90 0 8 4 21 10 28 6 8 5 12 -4 12 -11 0
-11 2 1 10 13 9 13 10 0 10 -12 0 -12 2 -2 9 8 4 13 11 13 15 -5 38 1 106 9
101 6 -3 10 -1 10 4 0 6 -5 11 -11 11 -8 0 -7 6 2 17 12 14 12 15 1 9 -12 -7
-12 -4 -2 14 10 18 9 24 -1 31 -10 6 -11 9 -1 9 7 0 12 14 12 34 0 19 4 46 10
61 7 19 7 24 -2 19 -7 -5 -8 -3 -3 5 4 7 8 27 10 45 1 18 5 38 9 44 4 7 2 12
-6 12 -8 0 -9 3 -3 8 6 4 11 21 12 37 5 86 8 107 15 111 5 3 6 10 3 15 -10 16
-14 50 -6 45 5 -3 9 17 10 44 2 73 3 80 14 80 5 0 3 8 -4 17 -8 9 -9 14 -3 10
6 -4 11 9 11 36 1 23 4 60 7 82 3 22 7 61 9 86 2 25 7 51 11 57 4 7 1 12 -6
12 -8 0 -9 3 -3 8 12 9 14 19 17 77 0 25 6 45 12 45 6 0 4 5 -4 11 -11 8 -12
12 -2 16 6 2 12 9 12 14 0 6 -5 7 -12 3 -7 -5 -8 -3 -3 5 6 12 16 70 17 111 1
8 6 18 12 22 8 6 8 8 -1 8 -12 0 -12 24 0 36 4 4 2 13 -4 21 -8 9 -8 13 -1 13
7 0 10 15 8 35 -1 19 2 35 7 35 5 0 3 8 -4 17 -10 11 -10 14 -1 9 6 -4 12 -2
12 3 0 6 -4 11 -9 11 -5 0 -16 12 -26 26 -9 15 -12 23 -6 20 6 -4 11 -2 11 3
0 6 -4 11 -10 11 -5 0 -10 18 -10 40 0 23 5 40 11 40 6 0 9 7 5 15 -3 9 3 20
14 27 11 7 20 18 20 24 0 11 72 45 100 48 8 1 20 -3 27 -7 7 -5 17 -6 22 -3 5
4 14 -2 20 -11 6 -10 11 -12 11 -6 0 18 40 -17 40 -35 0 -7 4 -11 9 -8 5 3 12
-6 17 -22 11 -40 13 -123 3 -116 -5 3 -9 -6 -9 -19 0 -15 -12 -33 -31 -48 -39
-30 -69 -39 -120 -35 -38 3 -39 2 -39 -28 0 -17 -4 -38 -9 -45 -6 -9 -6 -22 0
-33 7 -12 6 -18 -1 -18 -6 0 -10 -8 -9 -17 1 -10 0 -20 -1 -23 -6 -17 -5 -48
2 -44 4 3 8 0 8 -5 0 -6 -4 -11 -9 -11 -5 0 -8 -11 -6 -25 1 -14 -1 -25 -4
-25 -3 0 -7 -19 -7 -42 -1 -24 -5 -52 -9 -62 -6 -15 -5 -17 5 -11 9 6 11 4 5
-5 -9 -14 -16 -54 -16 -85 0 -10 -5 -26 -12 -34 -9 -12 -9 -13 1 -7 8 5 12 1
12 -13 0 -11 5 -23 10 -26 6 -3 10 -1 10 5 0 6 5 8 10 5 6 -3 10 -1 10 5 0 6
4 9 9 5 5 -3 12 -1 15 4 8 12 86 10 86 -2 0 -5 9 -7 21 -4 12 3 19 3 16 0 -7
-6 30 -43 44 -43 5 0 8 -4 4 -9 -3 -5 1 -16 10 -24 23 -24 7 -165 -18 -150 -6
4 -8 0 -4 -10 4 -11 1 -17 -7 -17 -7 0 -19 -7 -26 -15 -7 -8 -23 -15 -35 -15
-13 0 -26 -6 -29 -12 -5 -10 -7 -10 -12 0 -3 6 -10 12 -15 12 -6 0 -7 -5 -3
-11 4 -8 0 -8 -15 0 -11 7 -21 8 -21 4 0 -4 -5 -1 -10 7 -13 21 -27 -22 -24
-77 1 -23 -1 -41 -5 -39 -3 2 -5 -22 -4 -55 0 -32 -2 -57 -6 -55 -4 3 -7 -4
-7 -14 0 -10 3 -17 6 -15 3 2 6 -5 6 -15 0 -10 -3 -17 -7 -14 -4 2 -6 -25 -6
-61 1 -36 -1 -65 -4 -65 -4 0 -5 -14 -3 -31 2 -17 -1 -39 -6 -49 -7 -13 -7
-21 1 -26 8 -5 8 -9 -1 -14 -17 -10 -5 -40 15 -40 9 0 14 4 11 8 -3 5 1 9 9
10 8 1 22 3 30 4 8 1 15 4 15 8 0 12 74 5 100 -10 14 -8 28 -13 33 -12 4 1 7
-5 7 -13 0 -7 6 -18 13 -22 6 -4 19 -17 27 -27 13 -18 13 -19 0 -11 -12 7 -13
6 -4 -6 14 -19 18 -89 5 -89 -6 0 -11 -5 -11 -11 0 -5 5 -7 11 -3 6 3 3 -5 -6
-20 -10 -14 -22 -26 -28 -26 -6 0 -7 -3 -4 -7 10 -9 -43 -34 -56 -26 -6 3 -7
1 -3 -5 8 -14 1 -15 -70 -13 -44 1 -52 -1 -50 -16 0 -10 6 -21 11 -25 6 -5 6
-8 -2 -8 -12 0 -10 -30 3 -52 4 -6 3 -8 -3 -5 -7 4 -10 -20 -9 -68 1 -42 -1
-81 -5 -87 -4 -7 -3 -21 3 -31 5 -11 6 -22 2 -26 -7 -5 -15 -135 -13 -216 0
-24 0 -20 -2 -127 -1 -58 -5 -86 -12 -81 -6 4 -7 1 -1 -8 11 -19 13 -58 2 -65
-4 -3 -3 -14 3 -25 8 -16 13 -18 25 -8 8 6 14 7 14 2 0 -14 113 -9 118 5 2 7
7 10 11 8 4 -3 8 1 8 9 0 8 -5 11 -11 8 -6 -3 -5 0 2 8 6 7 12 26 12 42 0 15
4 26 9 23 4 -3 7 6 5 19 -1 14 1 25 6 25 4 0 6 9 3 20 -3 12 0 20 8 20 7 0 9
3 6 6 -3 4 -2 16 4 27 8 15 8 18 -1 12 -9 -6 -9 -3 -1 13 6 11 11 30 11 42 0
12 4 19 9 16 4 -3 7 10 6 30 -1 19 2 37 7 40 4 3 8 14 8 24 0 10 6 21 13 23 9
4 9 6 -1 6 -8 1 -10 6 -5 14 4 6 9 23 11 37 2 13 9 31 15 39 10 12 9 13 -3 6
-12 -7 -13 -6 -3 6 6 8 12 28 14 44 2 17 7 36 12 43 5 6 6 12 1 12 -10 0 -11
51 0 68 3 6 3 13 -2 16 -9 6 -8 59 3 75 3 6 1 11 -6 11 -8 0 -9 4 0 13 7 10 7
17 0 24 -8 8 -8 13 0 17 8 5 8 13 1 26 -6 11 -6 21 -1 25 5 3 8 23 6 45 -2 24
1 40 7 40 6 0 7 5 2 13 -11 15 -11 38 0 56 6 9 5 12 -2 8 -6 -5 -8 1 -5 14 4
12 11 18 20 15 8 -3 16 -6 17 -6 1 0 1 -13 0 -30 -1 -16 1 -28 4 -26 4 2 13
-2 20 -10 7 -8 10 -14 7 -14 -2 0 3 -9 12 -20 10 -11 27 -20 38 -20 12 0 27
-6 34 -12 11 -10 13 -10 7 0 -5 8 2 12 26 12 19 0 40 6 47 13 8 6 11 7 8 1 -4
-6 9 -4 27 5 19 9 32 19 29 24 -2 4 5 7 17 7 12 0 18 4 15 10 -3 5 3 19 14 31
11 12 18 26 15 31 -3 4 -2 8 3 8 4 0 9 20 9 45 1 31 -2 43 -10 38 -6 -4 -5 1
3 10 8 10 9 17 3 17 -6 0 -13 14 -17 30 -4 17 -11 28 -16 24 -5 -3 -9 1 -9 10
0 8 -13 20 -29 27 -16 7 -27 17 -25 21 3 4 -1 5 -9 2 -8 -3 -21 2 -29 10 -11
11 -18 12 -27 3 -7 -7 -11 -8 -11 0 0 11 -40 11 -79 -2 -38 -12 -58 -36 -71
-84 -8 -29 -14 -40 -20 -32 -6 11 -9 11 -13 0 -3 -8 -4 -1 -2 15 2 16 7 31 9
34 3 3 1 11 -5 18 -7 8 -7 14 1 19 7 4 7 12 0 26 -6 10 -7 19 -3 19 5 0 8 17
7 38 0 20 4 43 10 51 7 10 7 13 0 9 -6 -5 -10 13 -10 52 1 32 4 56 9 53 10 -6
9 5 -4 29 -6 11 -7 18 -2 15 5 -4 10 9 10 28 0 20 -4 32 -10 28 -6 -4 -7 -1
-1 8 5 8 10 39 11 69 4 88 8 124 17 139 6 10 5 12 -2 7 -7 -4 -12 -1 -12 9 0
10 5 13 13 9 9 -6 9 -4 -1 8 -11 14 -11 16 3 14 20 -3 35 -24 35 -49 0 -24 49
-77 72 -77 13 0 17 -4 12 -12 -5 -9 -2 -9 9 1 14 11 17 11 17 0 0 -12 2 -12 9
-1 11 17 21 17 32 0 5 -8 9 -9 9 -2 0 10 33 25 62 28 3 1 18 11 31 23 14 12
28 19 31 16 3 -4 6 4 6 16 0 12 4 19 10 16 6 -3 11 -1 11 4 2 19 4 26 10 36 3
6 5 17 4 25 0 8 4 18 10 22 7 5 7 8 -1 8 -6 0 -10 16 -9 35 1 19 -2 32 -6 29
-5 -3 -10 0 -10 5 -1 6 -2 15 -3 20 -1 12 -37 46 -56 54 -13 5 -13 6 0 7 27 2
-84 37 -112 35 -16 0 -28 2 -28 6 0 4 -13 2 -30 -4 -16 -6 -30 -16 -30 -22 0
-5 -5 -3 -10 5 -8 12 -10 11 -10 -7 0 -13 -4 -23 -9 -23 -9 0 -32 -55 -26 -62
2 -1 -3 -9 -11 -16 -8 -7 -14 -11 -15 -10 -6 21 -5 68 2 68 5 0 5 10 -1 24 -5
13 -6 26 -3 29 9 9 10 67 1 67 -5 0 -5 8 0 18 5 9 8 36 7 59 -1 23 2 40 6 37
5 -3 5 6 -1 20 -5 14 -6 26 -2 26 4 0 7 32 6 70 -1 39 3 70 8 70 4 0 8 5 8 11
0 5 -5 7 -11 4 -13 -9 -8 27 6 37 6 5 6 8 -2 8 -12 0 -12 24 0 36 11 12 8 26
-4 18 -8 -5 -8 -1 0 14 6 11 9 34 7 51 -2 18 2 36 10 42 11 9 14 8 14 0 0 -7
4 -10 9 -6 6 3 8 -4 6 -15 -2 -11 0 -20 6 -20 5 0 9 -9 9 -20 0 -11 7 -23 15
-26 8 -4 13 -10 10 -14 -3 -5 8 -15 25 -24 19 -9 28 -10 23 -3 -5 9 -3 9 8 0
12 -10 18 -10 29 0 10 9 11 9 6 0 -8 -14 10 -18 18 -5 2 4 19 9 37 10 18 1 39
10 46 20 8 9 11 11 8 4 -6 -11 -3 -11 13 -1 12 7 18 17 16 21 -3 4 2 8 10 8 9
0 16 5 16 11 0 6 7 17 15 25 8 9 15 24 15 35 0 12 4 17 11 13 8 -5 8 -1 0 13
-6 11 -7 23 -4 27 11 10 12 37 2 30 -5 -3 -9 9 -9 25 0 17 -4 31 -10 31 -5 0
-10 5 -10 11 0 18 -50 60 -62 53 -7 -4 -8 -2 -4 4 4 7 1 12 -9 12 -9 0 -14 4
-11 8 2 4 -4 9 -15 9 -13 1 -17 -2 -12 -10 5 -9 3 -9 -8 0 -8 6 -26 13 -39 15
-14 2 -31 7 -39 12 -10 6 -12 5 -7 -2 5 -8 -2 -12 -18 -12 -16 0 -26 -6 -26
-15 0 -9 -6 -12 -15 -9 -11 5 -13 2 -9 -10 4 -11 2 -16 -7 -14 -9 2 -13 -4
-11 -14 2 -10 -2 -18 -8 -18 -6 0 -9 -4 -6 -9 10 -15 -5 -40 -19 -34 -17 6
-17 73 -1 73 7 0 7 3 1 8 -12 9 -20 46 -8 39 10 -6 9 75 -1 91 -3 6 -2 14 4
17 8 5 7 12 -2 23 -10 12 -10 14 0 8 9 -5 12 2 12 28 0 19 -4 38 -10 41 -6 4
-5 13 3 26 10 16 9 21 -3 29 -8 5 -10 10 -4 10 13 0 14 31 2 40 -4 3 -8 22
-10 42 -1 20 -6 34 -10 32 -4 -3 -8 -1 -8 4 0 16 -37 52 -54 52 -10 0 -14 4
-11 10 9 15 -1294 11 -1321 -4z"/>
<path d="M2885 3370 c3 -5 8 -10 11 -10 2 0 4 5 4 10 0 6 -5 10 -11 10 -5 0
-7 -4 -4 -10z"/>
<path d="M2238 3170 c-3 -8 -1 -23 4 -33 6 -13 5 -23 -4 -35 -11 -13 -11 -14
1 -7 11 6 13 4 8 -9 -4 -9 -3 -15 1 -12 5 3 7 -15 6 -39 -2 -30 2 -45 9 -45
14 0 11 89 -4 104 -4 5 -3 18 2 28 6 11 8 22 5 26 -3 3 -7 -1 -7 -9 -1 -8 -4
0 -8 16 -5 20 -9 25 -13 15z"/>
<path d="M2854 3060 c0 -16 3 -30 6 -30 4 0 7 14 7 30 0 17 -3 30 -7 30 -3 0
-6 -13 -6 -30z"/>
<path d="M2840 3005 c-7 -9 -9 -15 -4 -14 22 4 25 -2 12 -23 -9 -15 -14 -51
-13 -105 0 -65 -3 -79 -13 -71 -9 8 -11 7 -6 -6 3 -9 11 -16 18 -16 6 0 4 -5
-5 -10 -11 -6 -15 -23 -13 -59 0 -28 -2 -49 -6 -46 -4 2 -7 -2 -7 -10 0 -8 4
-12 9 -9 5 4 4 -3 -3 -14 -11 -17 -10 -24 2 -38 9 -11 9 -15 2 -10 -13 7 -17
-11 -16 -71 0 -13 -5 -23 -11 -23 -6 0 -4 -5 4 -10 12 -8 12 -10 1 -10 -11 0
-11 -3 0 -17 8 -9 9 -14 3 -10 -11 6 -17 -33 -15 -105 0 -16 -5 -28 -12 -28
-7 0 -6 -4 3 -10 8 -5 10 -10 4 -10 -6 0 -10 -15 -9 -32 1 -18 -2 -38 -7 -45
-6 -7 -5 -14 2 -18 8 -5 8 -11 0 -20 -7 -8 -9 -19 -5 -25 3 -5 2 -10 -2 -10
-5 0 -7 -15 -5 -34 2 -18 -1 -44 -8 -56 -7 -12 -8 -20 -3 -17 5 4 10 0 10 -8
0 -8 -4 -12 -9 -9 -4 3 -8 0 -8 -5 0 -6 6 -11 13 -11 8 0 8 -3 2 -8 -6 -4 -11
-24 -12 -45 -1 -21 -7 -45 -15 -54 -9 -12 -10 -15 0 -9 13 8 17 -6 5 -18 -11
-11 -10 -30 2 -38 7 -5 7 -8 -1 -8 -9 0 -12 -19 -18 -115 -1 -17 -4 -35 -7
-40 -3 -6 -4 -27 -4 -47 1 -22 -3 -38 -9 -38 -6 0 -4 -5 4 -10 8 -5 10 -10 4
-10 -6 0 -12 -15 -12 -32 0 -18 -1 -35 -2 -38 -5 -13 -5 -60 0 -61 26 -5 70
-3 70 3 0 4 -6 8 -12 8 -9 0 -10 3 -2 8 6 4 11 14 12 22 4 73 7 90 16 90 7 0
8 3 1 8 -12 8 -13 22 -2 40 5 7 3 12 -4 12 -9 0 -9 3 0 14 9 11 9 20 2 35 -7
13 -8 22 -1 26 5 3 8 24 6 45 -2 22 -1 38 3 35 4 -2 8 2 8 10 0 8 -4 15 -8 15
-5 0 -6 7 -3 15 4 8 11 12 18 8 7 -4 7 -2 -1 8 -12 14 -10 55 2 67 2 3 0 11
-5 18 -8 8 -6 17 5 28 9 9 13 16 8 16 -4 0 -9 13 -9 30 -1 20 2 27 10 23 6 -4
5 1 -3 10 -9 11 -10 17 -2 17 6 0 11 5 11 11 0 5 -4 8 -8 5 -5 -3 -9 1 -9 9 0
8 4 12 9 9 13 -8 10 10 -4 25 -11 11 -10 13 0 7 8 -5 11 0 8 16 -2 13 2 29 8
37 9 12 8 13 -4 6 -12 -6 -13 -5 -3 5 8 8 9 19 3 30 -5 9 -5 22 0 30 4 7 6 20
2 28 -3 9 -1 13 4 10 5 -4 10 37 11 95 1 56 4 114 6 130 3 15 0 27 -7 27 -7 0
-7 3 -1 8 13 9 15 19 17 96 1 36 5 63 8 61 4 -2 7 2 7 10 0 8 -4 12 -9 9 -4
-3 -8 -1 -8 5 0 5 6 11 13 14 9 3 9 7 -2 20 -9 12 -10 17 -2 17 7 0 11 6 10
13 -6 46 2 177 11 172 6 -3 10 -1 10 4 0 6 -5 11 -11 11 -8 0 -8 4 -1 13 11
13 11 41 0 52 -3 3 -11 -2 -18 -10z"/>
<path d="M2254 2959 c0 -13 5 -18 15 -14 11 4 10 1 -3 -14 -11 -12 -14 -21 -7
-26 6 -3 11 -28 11 -54 0 -26 6 -53 13 -60 10 -11 10 -13 0 -7 -9 5 -13 0 -13
-13 0 -12 6 -21 13 -21 9 0 8 -3 -2 -9 -9 -6 -10 -10 -2 -16 9 -5 9 -10 0 -21
-6 -8 -7 -14 -2 -14 5 0 10 -21 10 -47 2 -77 3 -84 11 -79 5 3 9 -1 9 -9 0 -8
-5 -11 -10 -8 -5 3 -7 -10 -2 -34 3 -22 8 -60 9 -85 2 -25 7 -52 11 -58 5 -8
4 -11 -2 -7 -6 4 -9 -5 -7 -21 1 -15 3 -27 4 -27 1 0 4 -20 5 -45 2 -25 4 -47
5 -50 1 -3 1 -13 0 -24 -1 -11 3 -15 9 -12 6 4 11 2 11 -3 0 -6 -4 -11 -10
-11 -5 0 -10 -5 -10 -11 0 -5 4 -8 9 -4 10 6 7 -27 -4 -44 -3 -5 -1 -12 4 -16
5 -3 9 -18 7 -33 -1 -15 1 -40 6 -56 5 -19 3 -35 -5 -45 -6 -8 -7 -12 -1 -8
10 6 13 -9 18 -113 1 -19 5 -41 9 -47 5 -8 3 -13 -5 -13 -10 0 -10 -2 0 -9 8
-4 14 -12 14 -16 0 -4 -6 -12 -14 -16 -8 -6 -9 -9 -1 -9 10 0 13 -20 15 -107
0 -20 4 -30 11 -26 6 4 7 1 2 -8 -12 -18 -14 -49 -3 -43 11 7 10 -3 -2 -26 -7
-13 -7 -21 0 -25 5 -3 10 -21 10 -40 0 -22 6 -35 17 -40 10 -3 19 -2 21 3 2 6
12 8 22 5 16 -4 18 -1 14 18 -3 13 -7 38 -9 54 -2 17 -6 46 -9 65 -4 32 -18
155 -22 190 0 8 -2 17 -3 20 -3 6 -7 48 -12 113 -1 26 -8 47 -13 47 -6 0 -4 5
4 10 13 9 13 10 0 10 -13 0 -13 1 0 10 12 8 12 10 1 10 -11 0 -11 3 0 17 10
11 10 14 2 9 -10 -5 -13 3 -13 28 0 22 -5 36 -12 36 -8 0 -9 3 -3 8 14 10 17
32 4 32 -8 0 -8 4 -1 13 7 8 7 18 2 27 -6 8 -10 32 -10 53 0 20 -5 37 -11 37
-6 0 -7 5 -2 13 11 18 13 38 2 31 -6 -3 -8 6 -5 22 3 15 0 34 -6 41 -8 10 -7
13 2 13 8 0 9 4 3 13 -5 6 -9 31 -8 54 0 24 -3 43 -6 43 -3 0 -5 16 -3 35 2
25 -1 33 -9 28 -8 -5 -8 -2 0 9 7 8 10 18 6 22 -7 7 -12 27 -15 61 -1 11 -6
26 -12 34 -8 11 -8 13 2 7 6 -4 12 -3 12 1 0 5 -6 15 -12 22 -7 8 -8 11 -2 8
6 -3 11 0 11 8 0 8 -4 12 -8 10 -4 -3 -7 14 -8 38 -2 83 -6 107 -16 107 -5 0
-3 5 5 10 8 5 10 10 5 10 -6 0 -10 23 -10 53 1 42 -2 53 -15 54 -9 1 -16 -6
-16 -18z m173 -1321 c-3 -8 -6 -5 -6 6 -1 11 2 17 5 13 3 -3 4 -12 1 -19z"/>
<path d="M2238 2338 c-10 -28 -1 -157 12 -172 7 -9 10 -19 6 -23 -3 -3 -6 -1
-6 5 0 7 -5 12 -10 12 -6 0 -4 -13 5 -30 14 -27 14 -29 -2 -23 -15 5 -16 4 -7
-8 16 -19 24 -190 10 -182 -6 4 -3 -3 7 -14 14 -17 16 -26 8 -41 -7 -13 -7
-22 2 -31 9 -9 9 -14 0 -19 -8 -5 -9 -13 -3 -22 14 -21 12 -32 -2 -24 -10 6
-10 5 -1 -7 7 -9 13 -56 14 -116 2 -69 6 -100 13 -96 6 4 4 -2 -4 -12 -11 -14
-12 -19 -2 -22 6 -3 12 -9 12 -14 0 -6 -6 -7 -12 -3 -9 5 -9 2 1 -9 11 -14 11
-17 0 -17 -9 0 -10 -3 -4 -8 6 -4 10 -13 11 -19 3 -34 4 -35 21 -22 14 12 16
12 9 -1 -4 -8 0 -6 8 4 9 11 13 22 8 25 -4 3 -7 26 -7 51 0 25 -7 56 -15 70
-8 13 -10 21 -4 17 7 -4 14 1 17 12 3 12 0 18 -7 15 -7 -3 -12 4 -12 16 0 11
4 20 9 20 4 0 5 6 0 13 -4 6 -8 31 -9 54 -1 23 -5 47 -9 54 -5 8 -4 10 3 5 7
-4 12 -2 12 3 0 6 -3 11 -8 11 -4 0 -8 32 -10 72 -1 41 -6 75 -13 79 -8 5 -7
8 2 11 12 4 11 8 -1 23 -8 10 -10 16 -4 12 12 -7 12 28 1 39 -12 12 -8 26 5
18 7 -5 8 -3 2 7 -10 17 -11 19 -12 87 -2 40 -5 51 -14 46 -9 -5 -9 -2 1 9 13
16 8 22 -14 17 -5 -1 -2 7 8 18 9 10 14 22 10 26 -4 4 -9 25 -10 48 -3 44 -8
56 -15 36z"/>
<path d="M2870 2299 c0 -5 5 -7 10 -4 6 3 10 8 10 11 0 2 -4 4 -10 4 -5 0 -10
-5 -10 -11z"/>
<path d="M2869 2270 c-1 -5 -2 -18 -2 -27 -1 -10 -6 -21 -12 -25 -6 -5 -5 -8
4 -8 11 0 11 -3 0 -17 -8 -10 -9 -14 -2 -10 8 5 11 0 10 -13 -1 -11 -4 -20 -7
-20 -4 0 -8 -46 -9 -102 -1 -66 -6 -105 -14 -110 -9 -6 -9 -8 1 -8 6 0 12 -5
12 -11 0 -5 -6 -7 -12 -3 -10 6 -10 4 0 -7 14 -15 16 -33 3 -25 -14 9 -7 -19
9 -40 14 -17 14 -18 -2 -5 -21 15 -24 2 -5 -18 7 -9 8 -11 1 -7 -8 4 -12 -5
-13 -27 -1 -47 -10 -177 -14 -209 -3 -16 0 -28 7 -28 7 0 7 -3 -1 -8 -7 -4
-11 -25 -10 -50 2 -23 -2 -43 -8 -45 -6 -2 -5 -10 3 -20 15 -17 38 -14 40 6 0
7 2 42 3 79 1 37 5 65 10 63 9 -6 6 15 -4 33 -5 7 -3 12 5 12 10 0 10 2 -1 9
-9 6 -10 10 -2 16 9 5 9 10 1 20 -8 10 -8 15 0 20 8 5 8 10 0 20 -8 10 -8 15
0 20 8 5 7 11 -2 23 -10 12 -10 14 0 8 6 -4 12 -2 12 3 0 6 -6 11 -12 11 -9 0
-10 2 -2 8 7 4 11 37 10 87 -1 44 2 86 7 93 5 6 6 12 1 12 -5 0 -9 27 -9 59 0
37 4 57 10 53 6 -3 4 1 -3 10 -10 13 -10 17 3 22 10 4 13 11 8 18 -12 20 -12
38 -1 38 6 0 5 6 -2 15 -10 12 -10 15 1 15 12 0 12 2 1 9 -8 4 -14 12 -14 16
0 4 6 12 14 16 9 6 10 9 1 9 -7 0 -10 7 -7 15 4 8 3 15 0 15 -3 0 -7 -4 -7
-10z"/>
<path d="M2147 1303 c-4 -7 -18 -10 -30 -7 -22 4 -23 2 -19 -62 3 -49 1 -69
-9 -75 -9 -6 -10 -9 -2 -9 7 0 11 -17 11 -45 0 -31 -3 -43 -11 -39 -8 5 -8 2
1 -7 6 -7 12 -23 12 -36 0 -13 -6 -23 -12 -23 -9 0 -10 -3 -2 -8 15 -10 15
-264 0 -274 -8 -6 -8 -8 0 -8 15 0 16 -110 1 -110 -8 0 -8 -3 1 -8 7 -5 10
-22 8 -42 -5 -41 9 -55 54 -55 50 0 59 9 54 56 -2 24 0 38 6 34 6 -4 7 2 2 17
-5 13 -7 37 -5 53 8 77 8 101 1 117 -5 10 -4 19 2 23 5 3 10 11 10 16 0 6 -5
7 -12 3 -7 -5 -8 -3 -4 5 5 7 10 27 12 44 4 24 2 28 -5 17 -14 -20 -14 -7 0
23 8 18 8 30 -1 47 -7 12 -8 20 -3 17 5 -3 10 34 11 86 2 51 4 124 5 162 2 78
-7 97 -40 84 -14 -5 -23 -4 -26 4 -2 8 -5 8 -10 0z"/>
<path d="M2430 1299 c0 -5 -3 -8 -7 -8 -20 3 -29 -3 -30 -21 -1 -11 4 -20 10
-20 7 0 6 -4 -3 -10 -12 -8 -13 -11 -1 -19 11 -7 11 -9 0 -14 -12 -4 -11 -7 1
-16 12 -8 12 -11 1 -11 -11 0 -11 -3 0 -17 10 -11 10 -14 2 -9 -16 9 -17 -6
-2 -21 8 -8 8 -13 0 -17 -15 -10 -14 -29 2 -20 10 6 10 4 0 -7 -16 -16 -17
-33 -2 -24 6 4 5 -2 -2 -13 -10 -16 -10 -23 0 -35 8 -10 9 -17 1 -22 -14 -9
-13 -28 3 -19 10 6 10 4 0 -7 -7 -7 -13 -17 -13 -22 0 -4 6 -5 13 -1 8 5 8 2
-2 -9 -10 -13 -11 -20 -2 -30 8 -10 7 -17 -1 -25 -9 -9 -9 -12 2 -12 13 0 13
-2 0 -10 -12 -7 -13 -13 -3 -28 6 -11 8 -24 3 -33 -5 -8 -4 -19 3 -28 9 -12 9
-13 0 -7 -16 9 -17 -6 -2 -21 8 -8 8 -13 0 -17 -6 -4 -11 -12 -11 -17 0 -6 6
-7 13 -3 8 5 8 2 -2 -9 -11 -14 -11 -17 0 -17 10 -1 9 -4 -3 -11 -18 -10 -14
-37 6 -51 7 -5 6 -8 -3 -8 -11 0 -11 -3 0 -17 10 -11 10 -14 2 -9 -7 4 -13 3
-13 -3 0 -5 5 -13 10 -16 7 -4 7 -11 2 -18 -15 -19 -11 -46 6 -39 9 3 13 1 9
-4 -3 -5 5 -11 18 -12 19 -1 25 5 30 28 4 16 4 34 0 40 -3 5 -3 10 2 10 7 0 9
123 2 140 -1 3 -1 9 0 14 5 28 2 336 -3 345 -4 6 -4 11 1 11 6 0 9 90 3 110
-1 3 -1 28 0 56 1 44 -2 52 -19 57 -12 3 -21 1 -21 -4z"/>
<path d="M2545 1299 c4 -5 1 -9 -5 -9 -7 0 -10 -12 -9 -28 2 -15 0 -33 -4 -40
-5 -6 -4 -12 1 -12 10 0 8 -92 -3 -109 -3 -6 -3 -11 2 -11 10 0 9 -92 -1 -108
-4 -7 -4 -12 1 -12 10 0 9 -92 -1 -108 -4 -7 -2 -12 3 -12 13 0 10 -22 -4 -32
-7 -5 -7 -8 0 -8 11 0 12 -50 1 -68 -4 -7 -3 -12 1 -12 5 0 7 -46 6 -101 -3
-119 8 -144 55 -129 4 1 10 2 13 2 3 -1 5 179 6 399 0 219 -2 397 -4 395 -3
-2 -18 0 -34 4 -18 5 -27 5 -24 -1z"/>
<path d="M2677 1296 c-19 -15 -24 -31 -5 -20 7 5 8 3 2 -7 -14 -23 -17 -102
-3 -93 8 5 9 3 4 -7 -13 -21 -14 -52 -1 -68 8 -11 8 -13 -1 -7 -8 4 -13 1 -13
-9 0 -10 5 -14 13 -9 9 5 9 4 0 -6 -9 -9 -9 -19 -2 -33 8 -14 8 -18 0 -13 -7
5 -11 -1 -11 -14 0 -14 4 -19 13 -14 9 6 9 5 0 -7 -10 -12 -10 -18 0 -29 9
-10 9 -11 0 -6 -8 5 -13 1 -13 -9 0 -10 5 -13 12 -9 7 5 8 3 3 -7 -13 -21 -14
-52 -1 -68 8 -12 8 -13 -2 -7 -9 6 -12 1 -10 -16 2 -12 7 -28 10 -34 4 -6 4
-14 1 -18 -4 -4 -8 -27 -10 -52 -3 -34 -1 -44 8 -38 8 5 9 3 4 -7 -13 -21 -14
-52 -1 -68 8 -11 8 -13 -1 -7 -8 4 -13 1 -13 -9 0 -10 5 -14 13 -9 9 5 9 4 0
-6 -9 -9 -9 -19 -2 -33 8 -14 8 -17 0 -13 -7 5 -10 -2 -9 -18 1 -15 6 -26 9
-26 4 0 15 -3 25 -7 13 -5 15 -3 9 8 -7 12 -6 12 7 1 13 -11 18 -11 25 0 10
16 11 78 1 72 -5 -3 -4 6 2 20 6 17 6 26 -1 26 -6 0 -6 7 1 19 7 14 7 22 -1
26 -6 4 -7 14 -3 24 10 25 12 64 3 82 -4 8 -4 21 1 29 5 9 4 20 -3 29 -9 11
-9 15 1 18 6 3 12 9 12 14 0 6 -6 7 -12 3 -9 -5 -9 -2 1 9 10 13 10 17 1 17
-9 0 -9 4 1 17 12 15 12 16 -1 8 -13 -7 -13 -6 -2 7 9 12 10 18 2 23 -8 5 -8
11 1 21 9 11 9 14 0 14 -9 0 -9 5 -1 20 8 15 8 20 -1 20 -8 0 -7 5 2 17 11 13
11 17 2 20 -9 3 -10 10 -3 24 8 14 7 19 -1 19 -8 0 -7 5 2 17 12 15 12 16 -1
8 -13 -8 -13 -7 -1 8 11 14 11 17 0 17 -11 0 -11 2 1 10 12 8 12 10 1 10 -11
0 -11 3 0 17 12 15 12 16 -1 8 -12 -7 -13 -6 -3 7 7 8 9 18 5 22 -10 10 -10
56 0 50 4 -3 8 0 8 5 0 11 -5 13 -32 15 -7 1 -15 4 -18 8 -3 3 -13 1 -23 -6z"/>
<path d="M2914 1289 c-10 -13 -13 -19 -6 -15 15 9 17 -10 2 -19 -7 -4 -7 -11
-2 -18 5 -7 9 -76 8 -155 0 -78 2 -142 5 -142 8 0 3 -45 -6 -59 -3 -6 -2 -11
4 -11 10 0 5 -65 -6 -83 -3 -6 -1 -7 5 -3 7 4 10 -8 7 -39 -2 -25 1 -43 5 -40
5 3 5 -8 0 -25 -6 -21 -5 -30 3 -30 8 0 7 -3 -2 -9 -7 -5 -9 -11 -4 -14 10 -7
8 -71 -3 -89 -4 -7 -3 -8 4 -4 7 4 12 1 12 -9 0 -10 -5 -13 -12 -9 -10 6 -10
5 -1 -7 10 -12 52 -16 105 -10 11 2 15 35 6 58 -4 13 -4 23 2 23 5 0 5 12 0
30 -5 17 -5 32 0 35 5 3 5 16 0 30 -6 15 -6 25 0 25 5 0 5 12 0 30 -5 16 -5
32 0 35 4 3 4 20 0 39 -4 19 -6 37 -3 40 8 7 10 66 2 66 -3 0 -3 18 1 40 4 22
3 37 -1 34 -5 -3 -5 5 0 18 4 13 5 32 1 43 -4 11 -5 24 -3 28 8 13 9 117 2
117 -4 0 -3 15 1 34 4 18 3 41 -2 50 -5 9 -5 16 -1 16 4 0 1 4 -7 9 -8 6 -19
7 -24 3 -15 -9 -60 -8 -67 1 -3 4 -14 -2 -25 -14z"/>
<path d="M2290 1290 c0 -5 0 -13 1 -16 0 -4 -5 -11 -13 -15 -10 -7 -10 -9 -1
-9 13 0 13 -26 0 -47 -4 -6 -3 -15 3 -18 8 -5 8 -11 0 -20 -8 -9 -8 -15 0 -20
6 -3 7 -12 3 -18 -10 -16 -11 -67 -1 -61 4 3 4 -6 -2 -20 -7 -19 -6 -26 3 -26
8 0 7 -4 -3 -10 -13 -9 -13 -10 0 -10 13 0 13 -2 1 -9 -13 -8 -13 -12 0 -27
10 -12 10 -15 1 -10 -9 6 -12 1 -10 -16 2 -12 7 -29 12 -37 6 -9 5 -12 -2 -7
-7 4 -11 -18 -11 -71 0 -43 -1 -130 -2 -195 -1 -124 3 -147 27 -127 11 9 14 9
14 -1 0 -6 6 -10 13 -8 16 6 20 150 3 160 -7 5 -7 8 0 8 6 0 10 30 10 80 -1
47 3 80 9 80 6 0 6 3 -1 8 -13 9 -13 64 1 74 7 5 7 8 0 8 -6 0 -10 71 -9 195
l1 195 -23 0 c-13 0 -24 -4 -24 -10z"/>
<path d="M2803 1273 c2 -13 0 -23 -5 -23 -5 0 -6 -6 -1 -12 11 -18 11 -71 0
-85 -6 -9 -5 -13 2 -13 9 0 9 -5 1 -20 -6 -11 -7 -20 -2 -20 5 0 7 -15 5 -32
-5 -38 -5 -44 0 -80 2 -14 1 -32 -4 -39 -4 -7 -3 -23 1 -35 6 -14 5 -26 0 -29
-6 -4 -7 -14 -2 -23 5 -9 7 -28 5 -42 -4 -36 -4 -62 0 -85 3 -11 0 -28 -5 -39
-7 -12 -7 -16 0 -12 12 7 10 -32 -2 -52 -4 -7 -3 -12 1 -12 5 0 9 -9 9 -20 0
-11 -4 -20 -8 -20 -5 0 -4 -8 1 -19 6 -10 7 -21 3 -25 -3 -4 0 -11 8 -16 11
-7 12 -10 2 -10 -7 0 -11 -4 -8 -8 15 -24 79 8 69 34 -3 8 -6 73 -6 144 -1 82
-5 130 -12 130 -5 0 -4 4 3 9 8 4 14 12 14 16 0 4 -6 12 -14 16 -7 5 -8 9 -2
9 12 0 12 29 0 48 -4 7 -2 19 4 27 10 12 10 15 0 15 -10 0 -10 3 0 15 10 12
10 15 0 15 -10 0 -10 3 0 15 9 10 9 15 1 15 -6 0 -11 5 -11 11 0 5 6 7 13 3 9
-6 9 -5 0 7 -10 12 -10 18 0 29 7 8 8 10 1 7 -8 -5 -11 4 -10 23 0 17 5 30 11
30 6 0 6 3 -1 8 -5 4 -11 24 -11 45 -3 137 -1 127 -29 125 -21 -2 -25 -7 -21
-25z"/>
<path d="M2901 1204 c0 -11 3 -14 6 -6 3 7 2 16 -1 19 -3 4 -6 -2 -5 -13z"/>
<path d="M2126 382 c-4 -7 -11 -10 -16 -7 -11 7 -17 -15 -14 -53 5 -62 11 -64
97 -44 4 1 9 2 12 2 3 0 1 9 -6 21 -7 14 -8 24 -1 31 7 7 7 18 0 33 -9 19 -15
22 -34 15 -15 -6 -24 -5 -27 3 -2 8 -5 8 -11 -1z"/>
<path d="M2265 374 c-14 -10 -16 -17 -8 -25 7 -7 8 -20 3 -33 -10 -27 6 -42
45 -41 29 0 30 1 30 50 0 43 -3 50 -20 50 -11 0 -22 3 -25 7 -3 3 -14 0 -25
-8z"/>
<path d="M2421 382 c-24 -3 -30 -6 -21 -12 10 -6 11 -12 4 -22 -14 -17 -17
-71 -4 -63 6 3 10 1 10 -5 0 -6 12 -10 28 -8 24 3 27 7 27 38 0 19 3 37 7 40
16 13 -19 35 -51 32z"/>
<path d="M2537 384 c-2 -5 -5 -32 -4 -60 l0 -50 38 -1 c22 0 39 3 39 8 0 5 -6
9 -12 9 -10 0 -10 2 -1 8 7 4 10 23 8 42 -2 19 -4 39 -4 44 -1 5 -7 4 -13 -2
-18 -15 -30 -15 -38 -2 -4 7 -10 8 -13 4z"/>
<path d="M2669 375 c-1 -11 -3 -35 -5 -53 -1 -17 2 -30 7 -27 5 4 6 -1 3 -9
-5 -13 1 -15 30 -13 34 3 64 17 36 17 -11 0 -11 3 -2 12 9 9 9 15 0 26 -7 8
-8 16 -2 20 5 4 11 14 12 22 2 8 0 12 -3 8 -4 -4 -16 -3 -26 2 -12 7 -20 6
-25 -1 -4 -8 -9 -7 -15 2 -7 11 -9 9 -10 -6z"/>
<path d="M2827 382 c-4 -6 -15 -8 -24 -5 -12 5 -14 3 -7 -8 5 -8 9 -27 10 -44
2 -55 3 -56 38 -53 25 1 32 6 28 17 -4 10 -1 12 9 6 12 -8 12 -6 0 8 -11 14
-11 20 0 34 11 13 11 15 1 9 -9 -5 -13 -3 -11 5 4 33 -1 42 -15 30 -11 -9 -15
-9 -18 1 -3 9 -6 9 -11 0z"/>
<path d="M2945 382 c-13 -9 -15 -92 -3 -92 5 0 6 -5 3 -11 -5 -7 11 -9 45 -8
28 2 53 6 56 11 3 4 1 8 -5 8 -6 0 -6 11 -1 30 6 22 5 34 -5 44 -8 7 -12 16
-9 18 2 3 -7 4 -20 4 -14 -1 -28 -5 -32 -9 -11 -11 -26 -8 -19 3 7 12 4 13
-10 2z"/>
</g>
</svg>
